<svg width="39" height="40" viewBox="0 0 39 40" fill="none" xmlns="http://www.w3.org/2000/svg">
<rect x="0.5" width="38" height="40" rx="19" fill="#F4A32A"/>
<path d="M15.5046 26L13.0406 21.648H11.9846V26H9.74463V14.832H13.9366C14.8006 14.832 15.5366 14.9867 16.1446 15.296C16.7526 15.5947 17.206 16.0053 17.5046 16.528C17.814 17.04 17.9686 17.616 17.9686 18.256C17.9686 18.992 17.7553 19.6587 17.3286 20.256C16.902 20.8427 16.2673 21.248 15.4246 21.472L18.0966 26H15.5046ZM11.9846 19.968H13.8566C14.4646 19.968 14.918 19.824 15.2166 19.536C15.5153 19.2373 15.6646 18.8267 15.6646 18.304C15.6646 17.792 15.5153 17.3973 15.2166 17.12C14.918 16.832 14.4646 16.688 13.8566 16.688H11.9846V19.968ZM23.8986 14.832C25.072 14.832 26.1013 15.0613 26.9866 15.52C27.8826 15.9787 28.5706 16.6347 29.0506 17.488C29.5413 18.3307 29.7866 19.312 29.7866 20.432C29.7866 21.552 29.5413 22.5333 29.0506 23.376C28.5706 24.208 27.8826 24.8533 26.9866 25.312C26.1013 25.7707 25.072 26 23.8986 26H19.9946V14.832H23.8986ZM23.8186 24.096C24.992 24.096 25.8986 23.776 26.5386 23.136C27.1786 22.496 27.4986 21.5947 27.4986 20.432C27.4986 19.2693 27.1786 18.3627 26.5386 17.712C25.8986 17.0507 24.992 16.72 23.8186 16.72H22.2346V24.096H23.8186Z" fill="white"/>
</svg>
